# AST/ASF file generated using VICON BodyLanguage
# -----------------------------------------------
:version 1.10
:name VICON
:units
  mass 1.0
  length 0.45
  angle deg
:documentation
   .ast/.asf automatically generated from VICON data using
   VICON BodyBuilder and BodyLanguage model FoxedUp or BRILLIANT.MOD
:root
   order TX TY TZ RX RY RZ
   axis XYZ
   position 0 0 0  
   orientation 0 -0 0 
:bonedata
  begin
     id 1 
     name lhipjoint
     direction 0.432694 -0.693742 0.575759 
     length 2.19277 
     axis 0 -0 0  XYZ
  end
  begin
     id 2 
     name lfemur
     direction 0.34202 -0.939693 0  
     length 6.69022  
     axis 0 -0 20  XYZ
    dof rx ry rz
    limits (-160.0 20.0)
           (-70.0 70.0)
           (-60.0 70.0)
  end
  begin
     id 3 
     name ltibia
     direction 0.34202 -0.939693 0   
     length 6.50337   
     axis 0 -0 20   XYZ
    dof rx
    limits (-10.0 170.0)
  end
  begin
     id 4 
     name lfoot
     direction 0.158999 -0.435969 0.885805   
     length 2.70564   
     axis -90 -1.13533e-015 20   XYZ
    dof rx rz
    limits (-45.0 90.0)
           (-70.0 20.0)
  end
  begin
     id 5 
     name ltoes
     direction -0.00592919 0.00964381 0.999936   
     length 1.29929   
     axis -90 -1.13533e-015 20   XYZ
    dof rx
    limits (-90.0 20.0)
  end
  begin
     id 6 
     name rhipjoint
     direction -0.414359 -0.700339 0.581234   
     length 2.17212  
     axis 0 -0 0  XYZ 
  end
  begin
     id 7 
     name rfemur
     direction -0.34202 -0.939693 0   
     length 7.17659   
     axis 0 -0 -20   XYZ
    dof rx ry rz
    limits (-160.0 20.0)
           (-70.0 70.0)
           (-70.0 60.0)
  end
  begin
     id 8 
     name rtibia
     direction -0.34202 -0.939693 0   
     length 6.36669   
     axis 0 -0 -20   XYZ
    dof rx
    limits (-10.0 170.0)
 end
 begin
     id 9 
     name rfoot
     direction -0.137064 -0.37658 0.916188   
     length 2.22351  
     axis -90 1.13533e-015 -20   XYZ
    dof rx rz
    limits (-45.0 90.0)
           (-20.0 70.0)
  end
  begin
     id 10 
     name rtoes
     direction -0.000784077 -0.00289101 0.999996   
     length 1.09522   
     axis -90 1.13533e-015 -20   XYZ
    dof rx
    limits (-90.0 20.0)
  end
  begin
     id 11 
     name lowerback
     direction -0.0176242 0.984912 -0.172157   
     length 1.65301   
     axis 0 -0 0   XYZ
    dof rx ry rz
    limits (-20.0 45.0)
           (-30.0 30.0)
           (-30.0 30.0)
  end
  begin
     id 12 
     name upperback
     direction -0.00218128 0.998776 -0.0494072   
     length 1.67776   
     axis 0 -0 0   XYZ
    dof rx ry rz
    limits (-20.0 45.0)
           (-30.0 30.0)
           (-30.0 30.0)
  end
  begin
     id 13 
     name thorax
     direction 0.00544186 0.999658 0.0255711   
     length 1.72293   
     axis 0 -0 0   XYZ
    dof rx ry rz
    limits (-20.0 45.0)
           (-30.0 30.0)
           (-30.0 30.0)
  end
  begin
     id 14 
     name lowerneck
     direction -0.105325 0.983841 0.144785   
     length 2.14226   
     axis 0 -0 0   XYZ
    dof rx ry rz
    limits (-20.0 45.0)
           (-30.0 30.0)
           (-30.0 30.0)
  end
  begin
     id 15 
     name upperneck
     direction 0.0547957 0.988053 -0.144041   
     length 2.17508   
     axis 0 -0 0   XYZ
    dof rx ry rz
    limits (-20.0 45.0)
           (-30.0 30.0)
           (-30.0 30.0)
  end
  begin
     id 16
     name head
     direction 0.0247488 0.997534 -0.0656813  
     length 2.20048  
     axis 0 -0 0   XYZ
    dof rx ry rz
    limits (-20.0 45.0)
           (-30.0 30.0)
           (-30.0 30.0)
  end
  begin
     id 17 
     name lclavicle
     direction 0.820559 0.567247 -0.0701026  
     length 4.09615  
     axis 0 -0 0   XYZ
    dof ry rz
    limits (-20.0 10.0)
           (0.0 20.0)
  end
  begin
     id 18 
     name lhumerus
     direction 0.999977 -0.0067566 -9.96392e-005   
     length 4.59333   
     axis -180 -30 -90   XYZ
    dof rx ry rz
    limits (-60.0 90.0)
           (-90.0 90.0)
           (-90.0 90.0)
  end
  begin
     id 19
     name lradius
     direction 1 -4.48982e-011 -2.53425e-027   
     length 2.81151   
     axis -180 -30 -90   XYZ
    dof rx
    limits (-10.0 170.0)
  end
  begin
     id 20
     name lwrist
     direction 1 -4.48939e-011 -7.39254e-028   
     length 1.40576   
     axis 2.56395e-016 90 90   XYZ
    dof ry
    limits (-180.0 0.0)
 end
  begin
     id 21 
     name lhand
     direction 1 -4.48939e-011 -1.47851e-027   
     length 0.895651   
     axis 9.43423e-016 90 90   XYZ
    dof rx rz
    limits (-90.0 90.0)
           (-45.0 45.0)
  end
  begin
     id 22 
     name lfingers
     direction 1 -4.48978e-011 -2.95702e-027   
     length 0.722097   
     axis 1.88685e-015 90 90   XYZ
    dof rx
    limits (0.0 90.0)
  end
  begin
     id 23
     name lthumb
     direction 0.707107 -6.34931e-011 0.707107   
     length 1.03679   
     axis -90 45 -9.86935e-015   XYZ
    dof rx rz
    limits (-45.0 45.0)
           (-45.0 45.0)
  end
  begin
     id 24 
     name rclavicle
     direction -0.831414 0.553102 -0.0531864   
     length 4.24872  
     axis 0 -0 0   XYZ 
    dof ry rz
    limits (-10.0 20.0)
           (-20.0 0.0)
  end
  begin
     id 25 
     name rhumerus
     direction -0.999916 -0.000939607 0.0129331  
     length 4.74834   
     axis -180 30 90   XYZ
    dof rx ry rz
    limits (-90.0 60.0)
           (-90.0 90.0)
           (-90.0 90.0)
  end
  begin
     id 26 
     name rradius
     direction -1 -4.48956e-011 -1.31752e-027   
     length 2.79907   
     axis -180 30 90   XYZ
    dof rx
    limits (-10.0 170.0)
  end
  begin
     id 27 
     name rwrist
     direction -1 -4.4897e-011 -7.39254e-028   
     length 1.39954   
     axis 2.56395e-016 -90 -90   XYZ
    dof ry
    limits (-180.0 0.0)
  end
  begin
     id 28
     name rhand
     direction -0.999997 -0.00250697 0.000800838   
     length 0.953304   
     axis 9.43423e-016 -90 -90   XYZ
    dof rx rz
    limits (-90.0 90.0)
           (-45.0 45.0)
  end
  begin
     id 29
     name rfingers
     direction -1 -4.48954e-011 -2.95702e-027   
     length 0.763342   
     axis 1.88685e-015 -90 -90   XYZ
    dof rx
    limits (0.0 90.0)
  end
  begin
     id 30
     name rthumb
     direction -0.709701 -0.00217037 0.7045   
     length 1.10115   
     axis -90 -45 9.86935e-015   XYZ
    dof rx rz
    limits (-45.0 45.0)
           (-45.0 45.0)
  end
:hierarchy
  begin
    root lhipjoint rhipjoint lowerback
    lhipjoint lfemur
    lfemur ltibia
    ltibia lfoot
    lfoot ltoes
    rhipjoint rfemur
    rfemur rtibia
    rtibia rfoot
    rfoot rtoes
    lowerback upperback
    upperback thorax
    thorax lowerneck lclavicle rclavicle
    lowerneck upperneck
    upperneck head
    lclavicle lhumerus
    lhumerus lradius
    lradius lwrist
    lwrist lhand lthumb
    lhand lfingers
    rclavicle rhumerus
    rhumerus rradius
    rradius rwrist
    rwrist rhand rthumb
    rhand rfingers
  end

#!OML:ASF G:\ViconDB\ViconDB\414\test\team2\shane.ASF
:FULLY-SPECIFIED
:DEGREES
51
root 8.31131 15.2793 -17.8932 12.2504 -1.64557 -3.57041
lowerback 15.8475 2.51054 3.94227
upperback 7.61217 3.89978 3.97837
thorax -0.799741 1.95218 1.32357
lowerneck -17.1798 -4.58809 -6.7278
upperneck 15.851 -5.12949 3.10703
head 7.99069 -2.53324 1.51644
rclavicle -2.70347e-014 -3.33958e-014
rhumerus -6.41303 18.3738 -95.3102
rradius 81.2446
rwrist 26.9761
rhand -46.6629 -22.779
rfingers 7.12502
rthumb -19.3832 -51.833
lclavicle -2.70347e-014 -3.33958e-014
lhumerus -41.0169 -40.5194 90.0961
lradius 35.5156
lwrist -14.6651
lhand -44.8793 5.64063
lfingers 7.12502
lthumb -17.6675 34.858
rfemur -18.0329 -17.8191 21.8819
rtibia 60.8074
rfoot -37.8355 -1.68919
rtoes -26.5753
lfemur -24.8051 17.0788 -3.85045
ltibia 94.3822
lfoot -23.2221 -14.2217
ltoes -7.37339
52
root 8.29396 15.292 -17.5715 12.0106 -2.55985 -3.36384
lowerback 16.3707 2.98696 3.80084
upperback 7.69425 4.50763 3.44959
thorax -0.953354 2.25543 0.727655
lowerneck -16.9399 -4.69793 -6.09742
upperneck 15.6408 -5.47765 3.24024
head 7.88101 -2.64864 1.42159
rclavicle 2.54444e-014 5.24792e-014
rhumerus -2.94134 18.3269 -96.2595
rradius 83.6071
rwrist 28.6277
rhand -46.5387 -22.8677
rfingers 7.12502
rthumb -19.2638 -51.9336
lclavicle 2.54444e-014 5.24792e-014
lhumerus -44.6356 -41.1379 89.9404
lradius 35.4667
lwrist -13.5084
lhand -44.398 5.28301
lfingers 7.12502
lthumb -17.2043 34.5414
rfemur -15.5162 -16.5476 21.1631
rtibia 58.7905
rfoot -37.6271 -2.55591
rtoes -27.4774
lfemur -28.4236 18.0969 -4.70043
ltibia 96.2366
lfoot -24.6455 -13.7975
ltoes -7.28303
53
root 8.27639 15.2974 -17.2484 11.6893 -3.46743 -3.24013
lowerback 17.182 3.44314 3.69497
upperback 7.62956 5.1096 2.87965
thorax -1.39427 2.55027 0.0382197
lowerneck -16.5272 -4.79059 -5.44574
upperneck 15.521 -5.82153 3.41485
head 7.77084 -2.76034 1.3413
rclavicle -6.2816e-014 -1.82882e-014
rhumerus 0.0182428 18.2943 -97.4474
rradius 86
rwrist 29.9964
rhand -47.0029 -23.1551
rfingers 7.12502
rthumb -19.71 -52.1758
lclavicle -6.2816e-014 -1.82882e-014
lhumerus -48.8565 -41.9533 90.015
lradius 35.9475
lwrist -12.7841
lhand -44.2443 6.42402
lfingers 7.12502
lthumb -17.0563 35.6953
rfemur -12.8141 -15.3206 20.4997
rtibia 56.5265
rfoot -37.3967 -2.80284
rtoes -27.5848
lfemur -31.8231 18.8961 -5.43073
ltibia 97.4973
lfoot -25.6707 -13.6723
ltoes -6.7661
54
root 8.26393 15.3113 -16.9048 11.3839 -4.53475 -3.24342
lowerback 17.8572 3.9678 3.80933
upperback 7.56039 5.81566 2.19716
thorax -1.71581 2.90282 -0.911793
lowerneck -16.1289 -4.94511 -4.69574
upperneck 15.486 -6.28624 3.69047
head 7.69565 -2.91469 1.26418
rclavicle 4.45278e-014 2.38542e-015
rhumerus 2.64914 18.2125 -98.3741
rradius 88.6125
rwrist 30.784
rhand -47.3774 -23.549
rfingers 7.12502
rthumb -20.07 -52.5324
lclavicle 4.45278e-014 2.38542e-015
lhumerus -52.5079 -42.3951 89.3912
lradius 36.7173
lwrist -11.568
lhand -43.7764 5.893
lfingers 7.12502
lthumb -16.6059 35.2026
rfemur -9.91757 -13.8161 19.9309
rtibia 53.8829
rfoot -36.8169 -3.05609
rtoes -27.6645
lfemur -35.1877 20.0076 -6.47902
ltibia 98.0113
lfoot -26.9194 -12.6004
ltoes -6.81007
55
root 8.25079 15.3288 -16.5501 11.144 -5.40065 -3.07612
lowerback 18.4425 4.54237 3.71771
upperback 7.33676 6.55426 1.56953
thorax -2.16079 3.26115 -1.71077
lowerneck -15.3825 -5.17724 -3.87664
upperneck 15.3803 -6.81818 3.67774
head 7.52451 -3.13113 1.08362
rclavicle 1.25632e-013 -2.54444e-014
rhumerus 4.62509 17.9338 -98.9332
rradius 91.2976
rwrist 31.3419
rhand -47.5612 -23.6084
rfingers 7.12502
rthumb -20.2467 -52.5731
lclavicle 1.25632e-013 -2.54444e-014
lhumerus -56.801 -43.4442 89.4788
lradius 37.9315
lwrist -10.4405
lhand -43.6055 6.04261
lfingers 7.12502
lthumb -16.4414 35.3659
rfemur -6.96243 -12.5528 19.2521
rtibia 50.9258
rfoot -36.1286 -3.43884
rtoes -28.3098
lfemur -38.3789 20.2484 -7.59413
ltibia 97.9125
lfoot -27.8107 -12.1897
ltoes -6.28723
56
root 8.2382 15.3642 -16.1815 11.0985 -5.92408 -3.12575
lowerback 18.8631 4.97173 3.84059
upperback 7.02697 7.13563 1.00266
thorax -2.58628 3.5416 -2.53646
lowerneck -14.8123 -5.38623 -3.33998
upperneck 15.5819 -7.31124 4.0103
head 7.50429 -3.3081 1.06136
rclavicle 4.25399e-014 -2.70347e-014
rhumerus 6.28668 17.6355 -99.2173
rradius 93.954
rwrist 31.7845
rhand -47.7593 -23.9994
rfingers 7.12502
rthumb -20.4371 -52.9439
lclavicle 4.25399e-014 -2.70347e-014
lhumerus -60.5006 -44.0426 88.9801
lradius 39.1836
lwrist -9.34515
lhand -43.1624 5.18077
lfingers 7.12502
lthumb -16.0148 34.5388
rfemur -4.0154 -11.3769 19.0039
rtibia 47.5301
rfoot -34.9994 -3.84735
rtoes -28.3342
lfemur -41.8666 20.1685 -8.78154
ltibia 97.0755
lfoot -28.63 -11.3731
ltoes -6.76001
57
root 8.23668 15.393 -15.791 11.0535 -6.52774 -2.93769
lowerback 19.1159 5.49758 3.66917
upperback 6.70589 7.78145 0.434441
thorax -2.95695 3.84964 -3.20732
lowerneck -14.3349 -5.68185 -2.95188
upperneck 16.013 -7.89313 4.34939
head 7.58445 -3.5294 1.05137
rclavicle -5.48646e-014 3.02153e-014
rhumerus 7.50629 17.2567 -98.9685
rradius 96.4215
rwrist 32.4749
rhand -47.7479 -24.6583
rfingers 7.12502
rthumb -20.4262 -53.604
lclavicle -5.48646e-014 3.02153e-014
lhumerus -63.8891 -44.4935 88.3233
lradius 40.5611
lwrist -8.91304
lhand -42.588 5.88988
lfingers 7.12502
lthumb -15.4615 35.2915
rfemur -0.871073 -10.271 18.3441
rtibia 43.7438
rfoot -33.4429 -3.84038
rtoes -29.0028
lfemur -44.9489 19.915 -10.2947
ltibia 95.6557
lfoot -29.3117 -10.454
ltoes -7.49704
58
root 8.23646 15.4389 -15.3802 11.093 -6.71501 -2.7773
lowerback 19.1924 5.94504 3.39307
upperback 6.38223 8.31268 0.14415
thorax -3.2975 4.09742 -3.49608
lowerneck -14.4801 -6.06364 -3.1462
upperneck 17.1879 -8.50676 4.75728
head 8.05123 -3.76583 1.12796
rclavicle 1.63003e-014 -1.19271e-014
rhumerus 8.28031 16.9257 -98.1029
rradius 98.8434
rwrist 33.0997
rhand -47.7048 -25.4852
rfingers 7.12502
rthumb -20.3847 -54.4353
lclavicle 1.63003e-014 -1.19271e-014
lhumerus -67.0831 -44.7561 88.0611
lradius 41.9258
lwrist -8.06762
lhand -42.8076 5.70217
lfingers 7.12502
lthumb -15.6731 35.0874
rfemur 2.41646 -9.52077 17.8138
rtibia 39.4305
rfoot -31.2953 -3.6256
rtoes -29.8851
lfemur -47.8084 19.0131 -11.6129
ltibia 93.6226
lfoot -29.7679 -9.71331
ltoes -7.96806
59
root 8.23918 15.4957 -14.9466 11.126 -6.81143 -2.50967
lowerback 18.7746 6.1649 3.58729
upperback 6.28211 8.58993 -0.645914
thorax -3.00896 4.25751 -4.43408
lowerneck -14.5085 -6.36254 -2.69108
upperneck 17.9452 -9.1851 5.35163
head 8.34902 -3.97722 1.1603
rclavicle -2.78299e-015 -2.54444e-014
rhumerus 9.11211 16.3481 -97.8191
rradius 100.972
rwrist 33.8184
rhand -47.6098 -25.7587
rfingers 7.12502
rthumb -20.2935 -54.7185
lclavicle -2.78299e-015 -2.54444e-014
lhumerus -69.5879 -45.2559 86.728
lradius 43.505
lwrist -6.53728
lhand -42.8202 6.26466
lfingers 7.12502
lthumb -15.6852 35.6489
rfemur 5.77158 -9.19693 17.0105
rtibia 35.0159
rfoot -28.8088 -2.86041
rtoes -30.6764
lfemur -50.1118 17.8797 -12.9221
ltibia 91.1363
lfoot -30.1101 -8.68708
ltoes -8.20593
60
root 8.24824 15.5616 -14.5021 11.206 -6.64554 -2.36184
lowerback 18.4676 6.40009 3.58367
upperback 6.04264 8.88063 -1.01782
thorax -3.01645 4.40448 -4.85334
lowerneck -14.1105 -6.78402 -3.11312
upperneck 18.6178 -9.91819 6.29489
head 8.61313 -4.24413 1.45431
rclavicle 8.5875e-014 -2.3059e-014
rhumerus 9.13339 15.9511 -96.9482
rradius 102.865
rwrist 34.4644
rhand -47.6496 -26.6486
rfingers 7.12502
rthumb -20.3317 -55.6043
lclavicle 8.5875e-014 -2.3059e-014
lhumerus -72.1056 -45.4545 86.1582
lradius 44.871
lwrist -5.47093
lhand -42.8837 6.41511
lfingers 7.12502
lthumb -15.7464 35.7946
rfemur 9.29484 -8.84486 16.3751
rtibia 30.061
rfoot -25.4352 -1.39555
rtoes -30.9858
lfemur -52.1724 16.7062 -14.0225
ltibia 88.1676
lfoot -30.1691 -7.51041
ltoes -8.82334
61
root 8.25393 15.5523 -14.0709 11.0746 -6.4998 -2.26581
lowerback 18.4232 6.69079 3.36225
upperback 5.8141 9.21557 -1.25988
thorax -3.19693 4.56219 -5.0606
lowerneck -14.0052 -7.24278 -3.63491
upperneck 19.7658 -10.7031 7.11528
head 9.1086 -4.52932 1.70489
rclavicle 2.42517e-014 9.14409e-015
rhumerus 8.52738 15.3259 -95.9591
rradius 104.534
rwrist 35.1588
rhand -47.6124 -26.6183
rfingers 7.12502
rthumb -20.296 -55.5778
lclavicle 2.42517e-014 9.14409e-015
lhumerus -74.1874 -45.4881 85.4658
lradius 46.2145
lwrist -4.76563
lhand -42.8603 6.71052
lfingers 7.12502
lthumb -15.7238 36.0917
rfemur 13.276 -8.44396 15.7429
rtibia 24.5459
rfoot -21.0555 0.270796
rtoes -31.7581
lfemur -54.0803 15.6429 -14.8034
ltibia 85.1215
lfoot -29.9349 -6.75597
ltoes -9.33597
62
root 8.25939 15.6349 -13.5986 11.1021 -6.21165 -2.30781
lowerback 18.2712 6.88824 3.25489
upperback 5.50792 9.45378 -1.41017
thorax -3.41192 4.6694 -5.20907
lowerneck -14.0103 -7.59949 -4.03049
upperneck 21.069 -11.3204 7.56646
head 9.65569 -4.75279 1.83008
rclavicle -1.59028e-014 -1.15295e-014
rhumerus 7.18543 14.9366 -95.0573
rradius 105.858
rwrist 35.7466
rhand -47.7306 -26.8523
rfingers 7.12502
rthumb -20.4096 -55.7997
lclavicle -1.59028e-014 -1.15295e-014
lhumerus -75.7468 -45.0831 84.4696
lradius 47.5306
lwrist -4.87988
lhand -42.9285 5.92897
lfingers 7.12502
lthumb -15.7895 35.305
rfemur 17.5804 -8.36266 15.2003
rtibia 17.8675
rfoot -15.3877 2.57147
rtoes -32.1366
lfemur -55.2199 14.889 -15.5813
ltibia 81.2415
lfoot -29.6754 -6.68813
ltoes -10.515
63
root 8.26781 15.7402 -13.1082 11.1883 -5.88631 -2.32229
lowerback 17.9847 7.04992 3.22423
upperback 5.21611 9.65401 -1.62287
thorax -3.52032 4.76384 -5.43606
lowerneck -13.9715 -8.01317 -4.63287
upperneck 22.1959 -12.0752 8.43398
head 10.2036 -5.01354 2.11543
rclavicle 2.38542e-014 -1.78906e-014
rhumerus 5.28212 14.7841 -94.081
rradius 107.031
rwrist 36.4377
rhand -47.7263 -28.6568
rfingers 7.12502
rthumb -20.4054 -57.6047
lclavicle 2.38542e-014 -1.78906e-014
lhumerus -76.7677 -44.5959 83.131
lradius 48.8441
lwrist -5.56259
lhand -42.7764 5.44851
lfingers 7.12502
lthumb -15.643 34.8361
rfemur 23.1823 -7.63097 14.8619
rtibia 7.98917
rfoot -7.02967 4.25291
rtoes -32.1031
lfemur -56.0121 14.2274 -16.2759
ltibia 77.0317
lfoot -29.1823 -8.0316
ltoes -10.2058
